<svg width="200" height="200" viewBox="0 0 200 200" fill="none" xmlns="http://www.w3.org/2000/svg">
<rect width="200" height="200" fill="#202020"/>
<mask id="path-1-inside-1_603_1307" fill="white">
<path d="M190 100C190 117.8 184.722 135.201 174.832 150.001C164.943 164.802 150.887 176.337 134.442 183.149C117.996 189.961 99.9002 191.743 82.4419 188.271C64.9836 184.798 48.9471 176.226 36.3604 163.64C23.7737 151.053 15.202 135.016 11.7293 117.558C8.25665 100.1 10.039 82.0038 16.8508 65.5585C23.6627 49.1131 35.1983 35.0571 49.9987 25.1677C64.7991 15.2784 82.1997 10 100 10L100 20.7311C84.3221 20.7311 68.9963 25.3802 55.9606 34.0904C42.9249 42.8005 32.7648 55.1806 26.7651 69.6651C20.7655 84.1496 19.1957 100.088 22.2543 115.465C25.3129 130.841 32.8625 144.966 43.9485 156.052C55.0344 167.137 69.1588 174.687 84.5354 177.746C99.9121 180.804 115.85 179.235 130.335 173.235C144.819 167.235 157.199 157.075 165.91 144.039C174.62 131.004 179.269 115.678 179.269 100H190Z"/>
</mask>
<path d="M190 100C190 117.8 184.722 135.201 174.832 150.001C164.943 164.802 150.887 176.337 134.442 183.149C117.996 189.961 99.9002 191.743 82.4419 188.271C64.9836 184.798 48.9471 176.226 36.3604 163.64C23.7737 151.053 15.202 135.016 11.7293 117.558C8.25665 100.1 10.039 82.0038 16.8508 65.5585C23.6627 49.1131 35.1983 35.0571 49.9987 25.1677C64.7991 15.2784 82.1997 10 100 10L100 20.7311C84.3221 20.7311 68.9963 25.3802 55.9606 34.0904C42.9249 42.8005 32.7648 55.1806 26.7651 69.6651C20.7655 84.1496 19.1957 100.088 22.2543 115.465C25.3129 130.841 32.8625 144.966 43.9485 156.052C55.0344 167.137 69.1588 174.687 84.5354 177.746C99.9121 180.804 115.85 179.235 130.335 173.235C144.819 167.235 157.199 157.075 165.91 144.039C174.62 131.004 179.269 115.678 179.269 100H190Z" fill="#D9D9D9" stroke="black" stroke-width="2" stroke-linejoin="round" mask="url(#path-1-inside-1_603_1307)"/>
<path d="M24 100C24 84.9686 28.4573 70.2748 36.8083 57.7767C45.1593 45.2785 57.0289 35.5374 70.916 29.7852C84.8032 24.0329 100.084 22.5278 114.827 25.4603C129.569 28.3928 143.111 35.6311 153.74 46.2598C164.369 56.8886 171.607 70.4305 174.54 85.1731C177.472 99.9156 175.967 115.197 170.215 129.084C164.463 142.971 154.722 154.841 142.223 163.192C129.725 171.543 115.031 176 100 176L100 165.361C112.927 165.361 125.564 161.528 136.313 154.346C147.061 147.164 155.439 136.956 160.386 125.013C165.333 113.069 166.627 99.9274 164.105 87.2486C161.583 74.5697 155.358 62.9235 146.217 53.7825C137.076 44.6416 125.43 38.4166 112.751 35.8946C100.072 33.3726 86.9305 34.667 74.9873 39.614C63.0441 44.5611 52.836 52.9386 45.6541 63.6872C38.4721 74.4358 34.6387 87.0728 34.6387 100L24 100Z" fill="#D77A45"/>
<path d="M162 100C162 112.262 158.364 124.249 151.551 134.445C144.738 144.641 135.055 152.588 123.726 157.281C112.397 161.973 99.9313 163.201 87.9045 160.809C75.8777 158.416 64.8303 152.512 56.1595 143.841C47.4886 135.17 41.5837 124.123 39.1913 112.096C36.799 100.069 38.0268 87.6028 42.7194 76.2738C47.412 64.9448 55.3586 55.2617 65.5545 48.449C75.7503 41.6363 87.7373 38.0001 99.9997 38L99.9998 48.8044C89.8743 48.8044 79.9761 51.807 71.5571 57.4325C63.138 63.058 56.5762 71.0537 52.7013 80.4084C48.8265 89.7632 47.8127 100.057 49.7881 109.988C51.7635 119.919 56.6395 129.041 63.7993 136.201C70.9591 143.361 80.0813 148.237 90.0123 150.212C99.9433 152.187 110.237 151.173 119.592 147.299C128.947 143.424 136.942 136.862 142.568 128.443C148.193 120.024 151.196 110.126 151.196 100H162Z" fill="#C69570"/>
</svg>
